<?xml version="1.0" ?><svg id="Layer_1" style="enable-background:new 0 0 120 120;" version="1.1" viewBox="0 0 120 120" xml:space="preserve" xmlns="http://www.w3.org/2000/svg" xmlns:xlink="http://www.w3.org/1999/xlink"><style type="text/css">
	.st0{fill:#FFD488;}
	.st1{fill:#57A3C4;}
</style><circle class="st0" cx="60" cy="60" r="48.4"/><path class="st1" d="M91.5,53.4L64.5,29c-2.6-2.3-6.4-2.3-9,0l-27,24.4c-2.7,2.4-1,6.9,2.7,6.9h6v27.2c0,2.9,2.3,5.2,5.2,5.2h8.1  c0.9,0,1.6-0.7,1.6-1.6V78c0-2.9,2.3-5.2,5.2-5.2h5.3c2.9,0,5.2,2.3,5.2,5.2v13.1c0,0.9,0.7,1.6,1.6,1.6h8.1c2.9,0,5.2-2.3,5.2-5.2  V60.3h6C92.5,60.3,94.2,55.8,91.5,53.4z"/></svg>